<svg version="1.1" id="Layer_1" xmlns="http://www.w3.org/2000/svg" xmlns:xlink="http://www.w3.org/1999/xlink" x="0px" y="0px"
	 width="100%" viewBox="0 0 672 640" enable-background="new 0 0 672 640" xml:space="preserve">
<path fill="#000000" opacity="1.000000" stroke="none" 
	d="
M440.930939,82.975227 
	C462.678955,94.763878 483.737762,107.012650 501.717529,123.660782 
	C516.754272,137.583817 530.245300,152.940521 542.153381,169.709473 
	C567.383057,205.237869 583.770142,244.419479 590.535767,287.407684 
	C594.004761,309.449646 594.763672,331.623138 592.373108,354.041718 
	C589.327820,382.600769 583.350525,410.323578 571.887085,436.577637 
	C558.739319,466.689117 541.138367,494.304810 518.964966,518.520386 
	C477.783569,563.494629 426.409485,591.066406 366.799988,602.639893 
	C308.362610,613.985840 252.355347,604.805603 199.241364,578.507019 
	C148.132111,553.200989 108.572723,515.246826 79.815041,466.103027 
	C65.254921,441.221313 55.452438,414.386414 48.924042,386.350586 
	C43.149803,361.553375 41.832054,336.355927 43.843426,311.100098 
	C44.849277,298.470062 45.426517,285.610992 48.772270,273.316345 
	C52.630581,259.138245 56.333038,244.933395 61.801113,231.156342 
	C66.852432,218.429321 72.396194,206.077072 79.228027,194.254059 
	C85.318413,183.714203 92.544853,173.960892 99.789124,164.210587 
	C111.359146,148.638077 124.920509,134.940475 139.246902,121.946548 
	C143.452469,118.132141 148.414780,115.364197 152.878860,111.877419 
	C169.519089,98.880135 187.651093,88.274681 206.986008,79.770813 
	C221.089462,73.567848 235.359116,67.521553 250.400604,64.269501 
	C260.490692,62.087971 270.622101,59.852261 280.919495,58.297409 
	C303.501892,54.887596 326.101196,56.452721 348.582520,57.094894 
	C363.255554,57.514030 377.976593,61.043591 392.414948,65.205330 
	C408.943573,69.969604 425.061554,75.504807 440.930939,82.975227 
M220.762283,560.697571 
	C221.673538,561.107971 222.570084,561.555420 223.498184,561.923279 
	C259.916656,576.357239 297.499359,583.192810 336.777161,579.919128 
	C357.899048,578.158691 378.484406,574.613953 398.616119,567.560974 
	C427.141602,557.567200 452.973175,542.992126 476.070801,523.782776 
	C508.407806,496.889343 532.765198,463.921204 548.492615,424.761841 
	C558.511292,399.816406 566.623474,374.375641 567.564697,347.225128 
	C568.246338,327.563812 567.094727,308.009705 563.804382,288.561096 
	C555.502686,239.490921 535.507324,195.774704 501.419678,159.582352 
	C461.084717,116.756996 411.572083,90.591736 352.625183,83.033539 
	C320.369446,78.897697 288.564392,80.497467 256.976532,87.792564 
	C230.577744,93.889267 206.337769,104.858856 183.592972,119.592766 
	C155.629074,137.707581 131.135071,159.359558 111.285294,186.246536 
	C104.595909,195.307465 99.589798,205.236664 94.554268,215.171982 
	C89.519592,225.105591 84.578979,235.128601 81.507011,245.902832 
	C76.401093,263.810760 71.469345,281.759521 69.715691,300.399902 
	C68.015854,318.468170 66.342415,336.540009 68.458649,354.685730 
	C71.877365,383.999573 79.810730,411.948151 92.568672,438.670410 
	C107.931618,470.848907 130.160172,497.489319 156.746490,520.724731 
	C175.704346,537.293091 197.366760,549.718872 220.762283,560.697571 
z"/>
<path fill="#000000" opacity="1.000000" stroke="none" 
	d="
M320.999268,121.680374 
	C339.488281,121.686539 357.477448,121.703941 375.466583,121.709427 
	C382.823975,121.711670 390.333344,122.359375 397.173279,124.433830 
	C404.461761,126.644356 409.660126,133.001984 414.619415,138.812042 
	C419.836823,144.924500 423.298645,152.203232 427.228516,159.159897 
	C430.421753,164.812592 433.766266,170.379883 436.952118,176.036591 
	C439.376648,180.341537 442.414764,181.784042 447.217712,179.448593 
	C452.449402,176.904663 457.936584,174.883743 463.326752,172.669693 
	C465.017517,171.975174 466.707184,171.105026 468.479340,170.813736 
	C473.981995,169.909256 477.158142,173.818268 474.988464,178.885712 
	C471.946808,185.989685 466.665222,191.706802 462.618652,198.201431 
	C452.836090,213.902115 443.633484,229.937927 435.413147,246.487610 
	C431.351257,254.665390 426.299377,258.347809 416.557098,258.617798 
	C396.907898,259.162354 377.275177,258.684509 357.639526,258.965637 
	C351.663849,259.051208 345.677094,258.537720 339.699341,258.223694 
	C336.973480,258.080475 334.515991,256.999207 332.291351,255.483597 
	C326.515228,251.548401 326.244629,247.501984 331.799042,243.257339 
	C336.817993,239.421906 342.048645,235.836212 347.383179,232.451248 
	C350.554993,230.438583 351.313446,228.455566 349.331055,225.118515 
	C332.013733,195.967438 317.661713,164.938843 294.528442,139.481949 
	C290.061676,134.566513 285.356079,129.953690 279.345795,124.972450 
	C293.634491,122.249481 307.019318,121.465508 320.999268,121.680374 
z"/>
<path fill="#000000" opacity="1.000000" stroke="none" 
	d="
M207.601135,282.463440 
	C219.062927,303.382263 230.351517,323.976410 241.604797,344.589813 
	C244.198853,349.341522 242.914978,351.732819 237.444275,351.065887 
	C230.712524,350.245239 224.051559,348.639282 217.456970,346.985962 
	C214.227997,346.176483 212.580368,347.003784 211.170151,349.917114 
	C197.099075,378.986267 182.750366,407.922882 168.918304,437.104675 
	C165.214996,444.917603 165.614197,453.999573 163.363663,462.334656 
	C162.636963,465.026062 162.450180,467.908539 160.560471,470.370209 
	C156.958862,469.909424 155.812134,466.885223 154.515076,464.381775 
	C139.954208,436.277863 123.975555,408.954681 108.701149,381.245483 
	C101.614349,368.389313 102.196747,355.764954 107.826729,342.998169 
	C113.737038,329.595795 120.410599,316.553101 127.613380,303.781097 
	C131.618759,296.678772 131.451050,296.589569 125.047630,291.936584 
	C119.389816,287.825348 113.653511,283.814789 108.128593,279.531769 
	C106.005150,277.885620 103.113197,276.098175 104.565254,272.617859 
	C105.831451,269.583008 108.675194,268.985901 111.657776,268.982178 
	C139.817093,268.947144 167.976471,268.934967 196.135635,268.853760 
	C198.777695,268.846161 200.534805,269.821625 201.770996,272.136597 
	C203.574768,275.514435 205.526443,278.813263 207.601135,282.463440 
z"/>
<path fill="#000000" opacity="1.000000" stroke="none" 
	d="
M507.802917,402.786804 
	C511.330811,400.127411 513.813416,396.535248 518.128784,395.556427 
	C519.768860,397.815887 517.927185,399.212769 517.069092,400.566772 
	C510.385590,411.112488 503.811249,421.742493 498.251190,432.910797 
	C491.360138,446.752686 484.872437,460.763458 476.834137,474.036133 
	C468.551727,487.711884 458.609985,499.355408 444.191101,506.916992 
	C439.029449,509.623901 433.686371,510.098785 428.265350,510.019135 
	C419.610352,509.892059 410.922943,510.451843 402.296204,509.336426 
	C399.146973,508.929260 398.148071,510.386780 398.175385,513.321350 
	C398.243561,520.653687 398.311676,527.991211 398.111450,535.319336 
	C397.913818,542.553040 395.818329,544.457275 388.803284,544.863403 
	C385.965942,545.027771 384.127289,544.018799 382.687012,541.554199 
	C367.891663,516.236633 353.048004,490.947174 338.161377,465.683197 
	C336.334869,462.583435 336.479248,459.857422 338.410370,456.844910 
	C354.775330,431.315491 371.307587,405.897278 388.348602,380.811981 
	C390.049866,378.307617 392.008636,376.223328 395.280426,377.110046 
	C398.885254,378.086975 399.259308,381.131256 399.242035,384.309357 
	C399.203033,391.475647 399.371338,398.646240 399.170319,405.807129 
	C399.068481,409.434326 400.255188,410.898895 404.015289,410.807983 
	C419.326233,410.437622 434.630157,411.033173 449.964355,410.048004 
	C463.576141,409.173523 477.296082,409.463654 490.945892,409.915405 
	C497.842743,410.143707 503.380035,408.643402 507.802917,402.786804 
z"/>
<path fill="#000000" opacity="1.000000" stroke="none" 
	d="
M248.722900,407.351257 
	C261.301575,407.669250 273.437012,408.411987 285.558319,406.933990 
	C288.349304,406.593658 291.230560,406.611725 294.037292,406.851471 
	C303.560730,407.665039 307.975159,412.688568 308.218079,422.079346 
	C308.838287,446.054260 306.983948,469.989075 307.219727,493.959259 
	C307.305664,502.700836 301.070465,508.959259 292.670197,509.101318 
	C269.535980,509.492462 246.400742,509.857971 223.264420,510.071899 
	C216.430634,510.135132 209.683395,509.138000 203.126236,507.018585 
	C185.893265,501.448517 175.965469,489.744415 174.195099,467.493378 
	C172.958344,451.949280 178.008392,437.276154 185.791351,423.708099 
	C196.998489,404.170624 192.849716,408.361298 213.433533,407.654053 
	C225.053131,407.254852 236.677200,408.420502 248.722900,407.351257 
z"/>
<path fill="#000000" opacity="1.000000" stroke="none" 
	d="
M515.311646,313.759949 
	C519.994324,322.237213 524.488647,330.395050 528.348450,338.892090 
	C535.806458,355.310242 530.455261,374.788910 516.050964,385.698395 
	C502.416077,396.025177 487.410980,399.772766 470.564514,397.630646 
	C464.985382,396.921265 459.260193,397.209198 453.605774,397.297607 
	C449.996796,397.354034 447.686554,395.939209 446.074829,392.729553 
	C433.226379,367.142548 419.301514,342.139465 405.049957,317.313812 
	C403.979309,315.448730 403.156616,313.418762 402.407654,311.395477 
	C399.461700,303.436981 401.003876,298.319214 407.763641,293.061005 
	C415.432953,287.095306 424.218079,282.994324 432.596375,278.224030 
	C442.140076,272.790222 451.813965,267.584778 461.443329,262.302063 
	C463.338287,261.262482 465.245514,260.226685 467.219788,259.353577 
	C477.651459,254.740128 484.451904,256.909698 489.319672,267.264008 
	C496.847931,283.277527 506.224762,298.219452 515.311646,313.759949 
z"/>
<path fill="#000000" opacity="1.000000" stroke="none" 
	d="
M226.756500,256.287720 
	C213.374100,249.135605 200.331879,242.126038 187.245560,235.199814 
	C176.016815,229.256744 173.865204,222.655731 180.788727,212.188614 
	C193.939407,192.307190 203.607941,170.453812 216.389771,150.360687 
	C224.654572,137.368347 235.333969,130.616989 251.354645,130.744446 
	C269.697205,130.890350 284.421783,137.591522 296.258148,150.903046 
	C304.234467,159.873428 307.483734,171.559372 312.235657,182.333282 
	C313.291046,184.726089 312.009796,186.727798 310.650726,188.769531 
	C296.830200,209.531921 282.729431,230.124222 271.062988,252.229752 
	C263.489410,266.580078 253.592331,269.962250 238.875504,262.974182 
	C234.825882,261.051270 231.003967,258.648834 226.756500,256.287720 
z"/>
<path fill="#000000" opacity="1.000000" stroke="none" 
	d="
M269.271301,289.206573 
	C277.306946,290.388733 284.981903,289.818542 292.630707,289.839142 
	C317.114441,289.905060 341.598480,289.836731 366.082397,289.843567 
	C373.857086,289.845734 379.408936,295.444397 379.399445,303.219452 
	C379.372467,325.369293 379.380035,347.519348 379.271332,369.668823 
	C379.239929,376.063019 374.626892,381.259521 368.263885,382.358826 
	C365.981232,382.753174 363.643646,383.016876 361.330688,383.020233 
	C332.016663,383.062988 302.702576,383.061554 273.388489,383.038483 
	C263.594147,383.030792 256.898041,376.315796 256.895752,366.580231 
	C256.890778,345.594116 256.893402,324.607971 256.905579,303.621857 
	C256.910400,295.308685 260.700439,290.759003 269.271301,289.206573 
M361.046326,349.423065 
	C355.913757,349.463257 350.775787,349.379669 345.651123,349.602081 
	C343.473511,349.696594 340.990021,350.514923 340.989014,353.151398 
	C340.987885,356.096771 343.475006,356.719788 345.967285,356.735626 
	C351.266754,356.769287 356.566498,356.751648 361.866150,356.755005 
	C364.433319,356.756622 367.419922,356.704102 367.577148,353.451630 
	C367.748047,349.915955 364.705017,349.545044 361.046326,349.423065 
M327.867157,356.735382 
	C330.220367,356.644287 332.351166,355.987732 332.425018,353.239777 
	C332.476776,351.313904 330.844360,350.246124 329.084381,350.160614 
	C322.784637,349.854645 316.475372,349.587097 310.171082,349.615662 
	C307.909393,349.625916 305.729614,351.040802 305.775635,353.555939 
	C305.826447,356.332001 308.244171,356.737396 310.534698,356.745758 
	C316.020172,356.765717 321.505829,356.753845 327.867157,356.735382 
M273.322540,349.615295 
	C271.196014,350.257690 268.850922,350.939087 269.443359,353.811920 
	C269.980713,356.417755 272.256531,356.763489 274.550842,356.754822 
	C279.868011,356.734741 285.185303,356.738922 290.502533,356.728180 
	C292.801422,356.723541 295.256042,356.282654 295.438873,353.649689 
	C295.654663,350.542023 292.948547,350.113403 290.545990,350.011658 
	C285.072266,349.779907 279.593781,349.660919 273.322540,349.615295 
z"/>
</svg>